<svg id="图层_1" data-name="图层 1" xmlns="http://www.w3.org/2000/svg" viewBox="0 0 639.83 178.88"><defs><style>.cls-1,.cls-2{fill:#69f;}.cls-1{fill-rule:evenodd;}.cls-3{fill:#666;}</style></defs><path id="Layer" class="cls-1" d="M169.69,125.1a31.52,31.52,0,0,1-44.58,44.58L89.45,134,53.78,169.68A31.52,31.52,0,0,1,9.2,125.1L40.41,93.9l13.37,13.37-31.2,31.21a12.62,12.62,0,0,0,0,17.83A12.51,12.51,0,0,0,26.67,159a12.61,12.61,0,0,0,9.65,0,12.51,12.51,0,0,0,4.09-2.72l35.66-35.66L58.24,102.81,44.87,89.44,9.19,53.78A31.52,31.52,0,0,1,53.77,9.2L89.44,44.86,125.1,9.2a31.52,31.52,0,0,1,44.58,44.58L134,89.44Zm-111.46-49L76.06,58.27,40.4,22.61a12.51,12.51,0,0,0-4.09-2.72,12.61,12.61,0,0,0-9.65,0,12.51,12.51,0,0,0-4.09,2.72,12.62,12.62,0,0,0,0,17.83ZM159,152.22a12.64,12.64,0,0,0-2.71-13.7L93.87,76.07l13.4-13.38,13.37,13.38L156.31,40.4A12.51,12.51,0,0,0,159,36.31a12.61,12.61,0,0,0,0-9.65,12.43,12.43,0,0,0-6.82-6.81,12.67,12.67,0,0,0-13.74,2.72L71.6,89.44l17.84,17.83L102.81,93.9l13.37,13.37-13.37,13.38,35.66,35.66A12.57,12.57,0,0,0,159,152.22Z" transform="translate(0.01)"/><path id="Layer-2" data-name="Layer" class="cls-2" d="M290.75,30.61q7.62,6.62,9.49,19.76H289.38q-1.49-7.95-6.52-11.92c-3.3-2.72-7.77-4.08-13.44-4.09a19.49,19.49,0,0,0-16.31,7.84q-6.42,8.17-6.42,22.86,0,14.34,5.83,21.86,6.24,8.28,19.47,8.29c.83,0,1.65,0,2.47-.1s1.65-.15,2.47-.27,1.63-.27,2.44-.45,1.61-.38,2.4-.62,1.4-.45,2.09-.71,1.36-.57,2-.89,1.3-.68,1.93-1,1.26-.78,1.86-1.21V72.79H270.21V62.52h30.24V95.65a35.84,35.84,0,0,1-2.91,2.3,33.68,33.68,0,0,1-3.11,2,36.43,36.43,0,0,1-3.28,1.71c-1.13.51-2.28,1-3.44,1.37-1.36.46-2.74.85-4.13,1.19s-2.8.62-4.22.85-2.83.38-4.26.48-2.86.15-4.3.13q-16.83,0-26.18-11.92-8.73-11-8.7-28.68,0-17.79,8.7-29.18,9.09-12.15,24.81-12.15Q283,23.76,290.75,30.61Z" transform="translate(0.01)"/><path id="Layer-3" data-name="Layer" class="cls-2" d="M454.91,23.76H466.3V55.12a19.38,19.38,0,0,1,12.08-9,19.2,19.2,0,0,1,5.12-.56q10,0,15.16,6.07,4.83,5.74,4.83,17.11v35.45H492.1V70.69q0-7.39-3-11.48-3.22-4.1-9.78-4.09a11.24,11.24,0,0,0-2.71.28,11,11,0,0,0-2.56.93A11,11,0,0,0,470,59.87q-3.65,4.76-3.65,12.26v32H454.91Z" transform="translate(0.01)"/><path id="Layer-4" data-name="Layer" class="cls-1" d="M555.84,51.81q4.95,5.52,4.94,15.9v36.44H550.49V96.09a23.69,23.69,0,0,1-1.7,2,22.34,22.34,0,0,1-1.91,1.86,22,22,0,0,1-2.1,1.64,23.07,23.07,0,0,1-2.27,1.4,29.5,29.5,0,0,1-3,1.21,30.18,30.18,0,0,1-3.1.84,26.24,26.24,0,0,1-3.18.48,24.61,24.61,0,0,1-3.21.12q-8.41,0-13.34-4.52a15.88,15.88,0,0,1-5-12.26q0-10.81,8.1-16,6.78-4.41,17.81-4.4l12.18-.12V67Q549.75,55,537.47,55c-3.85,0-6.8.74-8.82,2.21a10.2,10.2,0,0,0-4.31,7.48h-11c.82-6.77,3.56-11.78,8.18-15q5.88-4.2,16.7-4.19Q550.18,45.52,555.84,51.81Zm-6.09,25.51-11.44.1q-15.22,0-15.23,11.16a7.42,7.42,0,0,0,.13,1.56,7.13,7.13,0,0,0,.46,1.51,7.44,7.44,0,0,0,.78,1.37,6.81,6.81,0,0,0,1,1.17c1.62,1.48,4,2.22,7,2.21A18.08,18.08,0,0,0,545,92a15.44,15.44,0,0,0,4.73-11.7Z" transform="translate(0.01)"/><path id="Layer-5" data-name="Layer" class="cls-2" d="M580.73,26.41a7.72,7.72,0,0,1,1,1.19,7.87,7.87,0,0,1,.74,1.37,7.7,7.7,0,0,1,.43,1.49A8.18,8.18,0,0,1,583,32a8.48,8.48,0,0,1-.15,1.59,8,8,0,0,1-.46,1.53,8.24,8.24,0,0,1-.76,1.4,8,8,0,0,1-1,1.23A8.37,8.37,0,0,1,575,40a8.32,8.32,0,0,1-5.64-2.2,8.61,8.61,0,0,1-1-1.24,8.13,8.13,0,0,1-1.16-2.93,8.35,8.35,0,0,1-.12-1.58,7.44,7.44,0,0,1,.1-1.56,7.05,7.05,0,0,1,.43-1.49,6.73,6.73,0,0,1,.74-1.37,8.38,8.38,0,0,1,2.22-2.17,7.38,7.38,0,0,1,2.86-1.12,7.25,7.25,0,0,1,1.54-.1,7.71,7.71,0,0,1,1.59.08,7.45,7.45,0,0,1,1.54.41,7.81,7.81,0,0,1,1.41.72A7.92,7.92,0,0,1,580.73,26.41Zm-11.5,20.65h11.5v57.09h-11.5Z" transform="translate(0.01)"/><path id="Layer-6" data-name="Layer" class="cls-2" d="M639.82,68.93v35.22H628.68V69.92q0-14.58-12.75-14.58a10.56,10.56,0,0,0-2.31.2,11.17,11.17,0,0,0-2.22.67,11.32,11.32,0,0,0-2,1.14,11,11,0,0,0-1.75,1.53,17.63,17.63,0,0,0-4.53,10.93v34.34H591.89V47.06h11.17v7.1a18.82,18.82,0,0,1,1.53-1.91,20.06,20.06,0,0,1,1.73-1.72,19.81,19.81,0,0,1,1.92-1.5,22.33,22.33,0,0,1,2.08-1.28,17.65,17.65,0,0,1,2.17-1,18.08,18.08,0,0,1,2.27-.71,18.83,18.83,0,0,1,4.73-.5Q639.81,45.52,639.82,68.93Z" transform="translate(0.01)"/><path id="Layer-7" data-name="Layer" class="cls-2" d="M310.87,23.79h13.39l17.53,29.3,17.52-29.3H372.7L348.33,63l26.09,42H361L341.79,72.8,322.55,105h-13.4L335,63Z" transform="translate(0.01)"/><path id="Layer-8" data-name="Layer" class="cls-2" d="M435.74,30.77q7.78,6.86,9.47,18.67h-10.6q-1.8-7.92-6.86-11.61T415,34.14q-11.57,0-17.35,8.57-5.47,7.71-5.49,21.39,0,13.88,5.39,21.59,5.69,8.15,17.66,8.14c5.25,0,9.57-1.4,13-4.23q5.39-4.56,7.48-13.68h10.6q-2.4,13.58-11.17,21.2a28.9,28.9,0,0,1-19.74,7.16q-17.46,0-26.34-12.15-7.68-10.3-7.67-28,0-17.37,8-28.12,8.88-12.25,25.94-12.26Q427.75,23.72,435.74,30.77Z" transform="translate(0.01)"/><path class="cls-3" d="M359.87,115.1h20.62q17.75,0,17.75,15.11t-17.89,15.25H367.46v19.35h-7.59Zm7.59,6.47V139h12.4c3.76,0,6.5-.69,8.21-2.09s2.58-3.66,2.58-6.68-.88-5.29-2.64-6.55-4.44-2.09-8.15-2.09Z" transform="translate(0.01)"/><path class="cls-3" d="M426,128.75v7.38a17.77,17.77,0,0,0-5.22-.77,8.18,8.18,0,0,0-6,2.72,10.51,10.51,0,0,0-2.78,7.66v19.07h-7.38v-36H412v5.43a10.71,10.71,0,0,1,3.48-4.39,8.84,8.84,0,0,1,5.85-2A10.31,10.31,0,0,1,426,128.75Z" transform="translate(0.01)"/><path class="cls-3" d="M460.14,133.27A19.58,19.58,0,0,1,465,146.85q0,8.22-4.81,13.44a18.49,18.49,0,0,1-26.32,0q-4.8-5.22-4.8-13.44T434,133.27q4.95-5.43,13.09-5.43T460.14,133.27Zm-21,4.67q-2.43,3.34-2.43,8.91a14.69,14.69,0,0,0,2.43,8.84,9.17,9.17,0,0,0,7.94,4,9.47,9.47,0,0,0,8-4,14.93,14.93,0,0,0,2.5-8.84,14.67,14.67,0,0,0-2.5-8.91,9.37,9.37,0,0,0-8-4A9.09,9.09,0,0,0,439.11,137.94Z" transform="translate(0.01)"/><path class="cls-3" d="M502.54,133.48q4.18,5.22,4.18,13.51a20.8,20.8,0,0,1-4.11,13.16q-4.38,5.64-12.18,5.64-6.62,0-11-6.27V178.6h-7.38V128.82h6.89v4.31q3.76-5.28,11.14-5.29A15.21,15.21,0,0,1,502.54,133.48Zm-21,4.18c-1.54,2.23-2.3,5.2-2.3,8.91v.63q0,5.85,2.85,9.33a8,8,0,0,0,6.69,3.27q5.43,0,8-3.55,2.36-3.41,2.36-9.26a17.41,17.41,0,0,0-2.16-9.26q-2.57-3.9-8-3.9A8.43,8.43,0,0,0,481.52,137.66Z" transform="translate(0.01)"/><path class="cls-3" d="M543.35,133.27a19.57,19.57,0,0,1,4.87,13.58q0,8.22-4.8,13.44a18.49,18.49,0,0,1-26.32,0q-4.82-5.22-4.81-13.44t4.88-13.58q4.94-5.43,13.09-5.43T543.35,133.27Zm-21,4.67q-2.45,3.34-2.44,8.91a14.63,14.63,0,0,0,2.44,8.84,9.16,9.16,0,0,0,7.94,4,9.47,9.47,0,0,0,8-4,14.93,14.93,0,0,0,2.5-8.84,14.67,14.67,0,0,0-2.5-8.91,9.37,9.37,0,0,0-8-4A9.08,9.08,0,0,0,522.32,137.94Z" transform="translate(0.01)"/><path class="cls-3" d="M584,139.19h-7.17a6.76,6.76,0,0,0-2.58-4,10.44,10.44,0,0,0-5.71-1.25,9.7,9.7,0,0,0-5,1,3.42,3.42,0,0,0-1.95,3.21c0,1.2,1,2.27,2.92,3.2a63,63,0,0,0,7.25,2.16,31.15,31.15,0,0,1,9.12,3.41,8.46,8.46,0,0,1,4.32,7.52q0,11.41-16,11.42-14.76,0-16-12.6h7.24a8,8,0,0,0,2.57,5.15q1.95,1.4,6,1.39,8.64,0,8.64-4.87,0-2.66-3.21-4.11a39.21,39.21,0,0,0-7.24-2.09q-6.4-1.46-8.91-3.13a8.18,8.18,0,0,1-4.18-7.24,8.71,8.71,0,0,1,4-7.66q4-2.79,10.58-2.79Q582.76,127.84,584,139.19Z" transform="translate(0.01)"/><path class="cls-3" d="M619.38,131.81q3.27,3.48,3.28,10v23h-6.83v-5.08a15.94,15.94,0,0,1-5.29,4.39,19.35,19.35,0,0,1-8.29,1.67q-5.57,0-8.84-2.86a9.75,9.75,0,0,1-3.34-7.72q0-6.83,5.36-10.1,4.53-2.79,11.84-2.79l8.07-.07v-.9q0-7.51-8.14-7.52a10.23,10.23,0,0,0-5.85,1.39,6.38,6.38,0,0,0-2.86,4.74h-7.31q.84-6.41,5.43-9.47,3.9-2.66,11.07-2.65Q615.63,127.84,619.38,131.81Zm-4,16.08-7.59.07q-10.1,0-10.09,7a4.49,4.49,0,0,0,1.6,3.55,6.9,6.9,0,0,0,4.66,1.39,12.55,12.55,0,0,0,8.29-2.78,9.55,9.55,0,0,0,3.13-7.39Z" transform="translate(0.01)"/><path class="cls-3" d="M631.92,114.12h7.38v50.69h-7.38Z" transform="translate(0.01)"/></svg>